<?xml version="1.0" encoding="utf-8"?>
<!-- Generator: Adobe Illustrator 26.0.1, SVG Export Plug-In . SVG Version: 6.00 Build 0)  -->
<svg version="1.1" id="Layer_1" xmlns="http://www.w3.org/2000/svg" xmlns:xlink="http://www.w3.org/1999/xlink" x="0px" y="0px"
	 viewBox="0 0 2000 2000" style="enable-background:new 0 0 2000 2000;" xml:space="preserve">
<style type="text/css">
	.st0{fill:url(#SVGID_1_);}
	.st1{fill:url(#SVGID_00000072277350317955361550000007717821594582728866_);}
	.st2{fill:url(#SVGID_00000146465765362045591940000007132142246388708509_);}
	.st3{fill:url(#SVGID_00000170274311137943361200000003248019713234764447_);}
	.st4{fill:url(#SVGID_00000002373815788315612510000011734648764570193295_);}
	.st5{fill:url(#SVGID_00000031187996030082323480000000011115759141016479_);}
	.st6{opacity:0.86;}
	.st7{fill:url(#SVGID_00000030458097591572162220000004629706712428892562_);}
	.st8{opacity:0.68;fill:#FFFFFF;}
	.st9{fill:#FFFFFF;}
	.st10{opacity:0.68;}
	.st11{fill:url(#SVGID_00000135650575330930411440000003544721197002703260_);}
	.st12{fill:url(#SVGID_00000117676806511728079450000015449023850442545036_);}
	.st13{fill:url(#SVGID_00000147215016380822372260000013545547644924618167_);}
	.st14{fill:url(#SVGID_00000021818283153647928460000015749338295702018443_);}
	.st15{fill:url(#SVGID_00000124161397099595374590000016376549644400076704_);}
</style>
<rect width="2000" height="2000"/>
<g>
	<g>
		<path class="st9" d="M685.2,1283.39v-102.46h21.66v84.6h43.93v17.86H685.2z"/>
		<path class="st9" d="M775.45,1196.64c-3.17,0-5.88-1.06-8.13-3.18c-2.25-2.12-3.38-4.66-3.38-7.63c0-2.93,1.13-5.46,3.38-7.58
			c2.25-2.12,4.96-3.18,8.13-3.18s5.88,1.06,8.13,3.18c2.25,2.12,3.38,4.64,3.38,7.58c0,2.97-1.13,5.51-3.38,7.63
			C781.33,1195.58,778.62,1196.64,775.45,1196.64z M764.75,1283.39v-76.85h21.31v76.85H764.75z"/>
		<path class="st9" d="M824.38,1238.97v44.43h-21.31v-76.85h20.31v13.56h0.9c1.7-4.47,4.55-8.01,8.56-10.63
			c4-2.62,8.86-3.93,14.56-3.93c5.34,0,9.99,1.17,13.96,3.5c3.97,2.33,7.05,5.66,9.26,9.98s3.3,9.46,3.3,15.43v48.93H852.6v-45.13
			c0.03-4.7-1.17-8.38-3.6-11.03c-2.44-2.65-5.79-3.98-10.06-3.98c-2.87,0-5.4,0.62-7.58,1.85s-3.89,3.03-5.1,5.38
			C825.04,1232.84,824.41,1235.66,824.38,1238.97z"/>
		<path class="st9" d="M890.67,1283.39v-102.46h21.31v102.46H890.67z M909.98,1261.28l0.05-25.57h3.1l24.62-29.17h24.46
			l-33.07,38.62h-5.05L909.98,1261.28z M938.7,1283.39l-22.61-33.47l14.21-15.06l33.37,48.53H938.7z"/>
		<path class="st9" d="M1028.61,1210.4c-0.4-4.04-2.12-7.17-5.15-9.41c-3.04-2.23-7.16-3.35-12.36-3.35c-3.54,0-6.52,0.49-8.96,1.48
			c-2.44,0.98-4.29,2.34-5.58,4.08s-1.93,3.7-1.93,5.9c-0.07,1.83,0.33,3.44,1.18,4.8c0.85,1.37,2.03,2.54,3.53,3.53
			c1.5,0.98,3.23,1.83,5.2,2.55c1.97,0.72,4.07,1.33,6.3,1.83l9.21,2.2c4.47,1,8.57,2.34,12.31,4c3.74,1.67,6.97,3.72,9.71,6.15
			c2.73,2.43,4.86,5.3,6.38,8.61c1.52,3.3,2.29,7.09,2.33,11.36c-0.03,6.27-1.63,11.7-4.78,16.29c-3.15,4.59-7.69,8.14-13.61,10.66
			c-5.92,2.52-13.05,3.78-21.39,3.78c-8.27,0-15.47-1.27-21.59-3.8c-6.12-2.53-10.89-6.29-14.31-11.28
			c-3.42-4.99-5.21-11.17-5.38-18.54h20.96c0.23,3.44,1.23,6.3,2.98,8.58c1.75,2.29,4.1,4,7.05,5.15c2.95,1.15,6.29,1.73,10.03,1.73
			c3.67,0,6.86-0.53,9.58-1.6c2.72-1.07,4.83-2.55,6.33-4.45c1.5-1.9,2.25-4.08,2.25-6.55c0-2.3-0.68-4.24-2.03-5.8
			c-1.35-1.57-3.32-2.9-5.9-4c-2.59-1.1-5.75-2.1-9.48-3l-11.16-2.8c-8.64-2.1-15.46-5.39-20.46-9.86c-5-4.47-7.49-10.49-7.45-18.06
			c-0.03-6.2,1.63-11.62,4.98-16.26c3.35-4.64,7.96-8.26,13.83-10.86c5.87-2.6,12.54-3.9,20.01-3.9c7.6,0,14.25,1.3,19.94,3.9
			c5.69,2.6,10.11,6.22,13.28,10.86s4.8,10.01,4.9,16.11H1028.61z"/>
		<path class="st9" d="M1105.75,1206.54v16.01h-46.28v-16.01H1105.75z M1069.98,1188.13h21.31v71.64c0,1.97,0.3,3.5,0.9,4.58
			c0.6,1.08,1.44,1.84,2.53,2.28c1.08,0.43,2.34,0.65,3.78,0.65c1,0,2-0.09,3-0.28c1-0.18,1.77-0.33,2.3-0.42l3.35,15.86
			c-1.07,0.33-2.57,0.72-4.5,1.18c-1.93,0.45-4.29,0.72-7.05,0.83c-5.14,0.2-9.63-0.48-13.48-2.05s-6.85-4-8.98-7.3
			c-2.13-3.3-3.19-7.47-3.15-12.51V1188.13z"/>
		<path class="st9" d="M1141.52,1284.84c-4.9,0-9.27-0.86-13.11-2.58c-3.84-1.72-6.86-4.27-9.08-7.65
			c-2.22-3.38-3.33-7.61-3.33-12.68c0-4.27,0.78-7.85,2.35-10.76c1.57-2.9,3.7-5.24,6.4-7c2.7-1.77,5.78-3.1,9.23-4
			c3.45-0.9,7.08-1.53,10.88-1.9c4.47-0.47,8.07-0.91,10.81-1.33c2.73-0.42,4.72-1.04,5.95-1.88c1.23-0.83,1.85-2.07,1.85-3.7v-0.3
			c0-3.17-0.99-5.62-2.98-7.35c-1.98-1.73-4.79-2.6-8.43-2.6c-3.84,0-6.89,0.84-9.16,2.53c-2.27,1.68-3.77,3.79-4.5,6.33l-19.71-1.6
			c1-4.67,2.97-8.71,5.9-12.13c2.93-3.42,6.73-6.05,11.38-7.91c4.65-1.85,10.05-2.78,16.19-2.78c4.27,0,8.36,0.5,12.28,1.5
			c3.92,1,7.41,2.55,10.46,4.65c3.05,2.1,5.46,4.8,7.23,8.08c1.77,3.29,2.65,7.21,2.65,11.78v51.83h-20.21v-10.66h-0.6
			c-1.23,2.4-2.89,4.51-4.95,6.33c-2.07,1.82-4.55,3.24-7.46,4.25C1148.68,1284.34,1145.33,1284.84,1141.52,1284.84z
			 M1147.63,1270.13c3.13,0,5.9-0.62,8.3-1.88s4.29-2.94,5.65-5.08c1.37-2.13,2.05-4.55,2.05-7.25v-8.16
			c-0.67,0.43-1.58,0.83-2.73,1.18c-1.15,0.35-2.44,0.67-3.88,0.95c-1.43,0.28-2.87,0.53-4.3,0.75s-2.74,0.41-3.9,0.58
			c-2.5,0.37-4.69,0.95-6.55,1.75c-1.87,0.8-3.32,1.88-4.35,3.23c-1.03,1.35-1.55,3.03-1.55,5.03c0,2.9,1.06,5.11,3.18,6.63
			C1141.67,1269.38,1144.36,1270.13,1147.63,1270.13z"/>
		<path class="st9" d="M1236.08,1284.89c-7.87,0-14.63-1.68-20.29-5.03c-5.65-3.35-9.99-8.01-13.01-13.98
			c-3.02-5.97-4.53-12.84-4.53-20.61c0-7.87,1.53-14.78,4.58-20.74c3.05-5.95,7.4-10.61,13.03-13.96
			c5.64-3.35,12.34-5.03,20.11-5.03c6.7,0,12.57,1.22,17.61,3.65c5.04,2.43,9.02,5.85,11.96,10.26c2.93,4.4,4.55,9.57,4.85,15.51
			h-20.11c-0.57-3.83-2.06-6.93-4.48-9.28s-5.58-3.53-9.48-3.53c-3.3,0-6.18,0.89-8.63,2.68c-2.45,1.78-4.36,4.38-5.73,7.78
			c-1.37,3.4-2.05,7.52-2.05,12.36c0,4.9,0.67,9.07,2.03,12.51c1.35,3.44,3.26,6.05,5.73,7.85c2.47,1.8,5.35,2.7,8.66,2.7
			c2.43,0,4.63-0.5,6.58-1.5c1.95-1,3.57-2.46,4.85-4.38c1.28-1.92,2.13-4.23,2.53-6.93h20.11c-0.33,5.87-1.93,11.03-4.78,15.49
			c-2.85,4.45-6.78,7.93-11.78,10.43C1248.84,1283.64,1242.92,1284.89,1236.08,1284.89z"/>
		<path class="st9" d="M1284.11,1283.39v-102.46h21.31v102.46H1284.11z M1303.42,1261.28l0.05-25.57h3.1l24.62-29.17h24.46
			l-33.07,38.62h-5.05L1303.42,1261.28z M1332.14,1283.39l-22.61-33.47l14.21-15.06l33.37,48.53H1332.14z"/>
	</g>
	<g>
		<g>
			<path class="st9" d="M1102.87,715.17H939.44c-23.81,0-45.81,12.7-57.71,33.32l-81.72,141.53c-11.9,20.62-11.9,46.02,0,66.64
				l81.72,141.54c11.9,20.62,33.9,33.32,57.71,33.32h163.43c23.81,0,45.81-12.7,57.71-33.32l81.72-141.54
				c11.9-20.62,11.9-46.02,0-66.64l-81.72-141.53C1148.68,727.87,1126.68,715.17,1102.87,715.17z M1082.07,1095.48H960.25
				c-23.81,0-45.81-12.7-57.71-33.32l-60.91-105.5c-11.9-20.62-11.9-46.02,0-66.64l60.91-105.49c11.9-20.62,33.9-33.32,57.71-33.32
				h121.82c23.81,0,45.81,12.7,57.71,33.32l60.91,105.49c11.9,20.62,11.9,46.02,0,66.64l-60.91,105.5
				C1127.87,1082.78,1105.87,1095.48,1082.07,1095.48z"/>
		</g>
		<path class="st8" d="M1141.95,921.12l-118.28-52.39c-1.49-0.66-3.54-0.66-5.03,0l-118.28,52.39c-1.05,0.47-1.67,1.2-1.67,1.98
			c0,0.78,0.62,1.51,1.67,1.98l118.28,52.39c1.49,0.66,3.54,0.66,5.03,0l118.28-52.39c1.05-0.47,1.67-1.2,1.67-1.98
			C1143.62,922.32,1143,921.59,1141.95,921.12z"/>
		<path class="st8" d="M1141.95,969.95l-118.28-52.39c-1.49-0.66-3.54-0.66-5.03,0l-118.28,52.39c-1.05,0.47-1.67,1.2-1.67,1.98
			c0,0.78,0.62,1.51,1.67,1.98l118.28,52.39c1.49,0.66,3.54,0.66,5.03,0l118.28-52.39c1.05-0.47,1.67-1.2,1.67-1.98
			C1143.62,971.14,1143,970.41,1141.95,969.95z"/>
		<g class="st6">
			<path class="st8" d="M1141.95,872.3l-118.28-52.39c-1.49-0.66-3.54-0.66-5.03,0L900.36,872.3c-1.05,0.47-1.67,1.2-1.67,1.98
				c0,0.78,0.62,1.51,1.67,1.98l118.28,52.39c1.49,0.66,3.54,0.66,5.03,0l118.28-52.39c1.05-0.47,1.67-1.2,1.67-1.98
				C1143.62,873.5,1143,872.77,1141.95,872.3z"/>
		</g>
	</g>
</g>
</svg>
