<?xml version="1.0" encoding="utf-8"?>
<!-- Generator: Adobe Illustrator 26.0.1, SVG Export Plug-In . SVG Version: 6.00 Build 0)  -->
<svg version="1.1" id="Layer_1" xmlns="http://www.w3.org/2000/svg" xmlns:xlink="http://www.w3.org/1999/xlink" x="0px" y="0px"
	 viewBox="0 0 2000 2000" style="enable-background:new 0 0 2000 2000;" xml:space="preserve">
<style type="text/css">
	.st0{fill:url(#SVGID_1_);}
	.st1{fill:url(#SVGID_00000101094641781356154990000018093594397737688725_);}
	.st2{fill:url(#SVGID_00000054264623346123794340000016842002270411864992_);}
	.st3{fill:url(#SVGID_00000004521466995059943700000013671495352981296800_);}
	.st4{fill:url(#SVGID_00000030461615994204062860000010309853132451432882_);}
	.st5{fill:url(#SVGID_00000026141539817030478570000005027818086345066151_);}
	.st6{opacity:0.86;}
	.st7{fill:url(#SVGID_00000074427066166479707780000012774192353580354705_);}
	.st8{opacity:0.68;fill:#FFFFFF;}
	.st9{fill:#FFFFFF;}
	.st10{opacity:0.68;}
	.st11{fill:url(#SVGID_00000183968812641576017900000002243885477434472836_);}
	.st12{fill:url(#SVGID_00000010282645404577896690000003674491232228682388_);}
	.st13{fill:url(#SVGID_00000106109821879331769150000004974203589469572742_);}
	.st14{fill:url(#SVGID_00000083077995481742505650000011554333635214845375_);}
	.st15{fill:url(#SVGID_00000025435549212564884180000012230754780268540300_);}
</style>
<g>
	<g>
		<path d="M685.14,1278.48h47.79v18.08h-70.29v-109.23h22.51V1278.48z"/>
		<path d="M744.26,1194.38c0-3.25,1.09-5.93,3.26-8.03c2.18-2.1,5.14-3.15,8.89-3.15c3.7,0,6.65,1.05,8.85,3.15
			c2.2,2.1,3.3,4.78,3.3,8.03c0,3.3-1.11,6-3.34,8.1c-2.23,2.1-5.16,3.15-8.81,3.15c-3.65,0-6.59-1.05-8.81-3.15
			C745.37,1200.38,744.26,1197.68,744.26,1194.38z M767.29,1296.56h-21.76v-81.17h21.76V1296.56z"/>
		<path d="M805.1,1215.38l0.68,9.38c5.8-7.25,13.58-10.88,23.33-10.88c8.6,0,15,2.53,19.21,7.58c4.2,5.05,6.35,12.6,6.45,22.66
			v52.44h-21.68v-51.91c0-4.6-1-7.94-3-10.02c-2-2.07-5.33-3.11-9.98-3.11c-6.1,0-10.68,2.6-13.73,7.8v57.24h-21.68v-81.17H805.1z"
			/>
		<path d="M900.67,1264l-7.8,7.8v24.76h-21.68v-115.23h21.68v63.84l4.2-5.4l20.78-24.38h26.03l-29.33,33.83l31.88,47.34h-24.91
			L900.67,1264z"/>
		<path d="M1011.33,1267.9c0-4.25-1.5-7.51-4.5-9.79c-3-2.28-8.4-4.68-16.2-7.2c-7.8-2.52-13.98-5.01-18.53-7.46
			c-12.4-6.7-18.6-15.73-18.6-27.08c0-5.9,1.66-11.17,4.99-15.79c3.33-4.63,8.1-8.24,14.33-10.84c6.23-2.6,13.22-3.9,20.97-3.9
			c7.8,0,14.75,1.41,20.86,4.24c6.1,2.83,10.84,6.82,14.22,11.97c3.38,5.15,5.06,11,5.06,17.55h-22.51c0-5-1.58-8.89-4.73-11.67
			c-3.15-2.78-7.58-4.16-13.28-4.16c-5.5,0-9.78,1.16-12.83,3.49c-3.05,2.33-4.58,5.39-4.58,9.19c0,3.55,1.79,6.53,5.36,8.93
			c3.58,2.4,8.84,4.65,15.79,6.75c12.8,3.85,22.13,8.63,27.98,14.33c5.85,5.7,8.78,12.8,8.78,21.31c0,9.45-3.58,16.87-10.73,22.24
			c-7.15,5.38-16.78,8.06-28.88,8.06c-8.4,0-16.05-1.54-22.96-4.61s-12.17-7.29-15.79-12.64c-3.63-5.35-5.44-11.55-5.44-18.6h22.58
			c0,12.05,7.2,18.08,21.61,18.08c5.35,0,9.53-1.09,12.53-3.26C1009.83,1274.84,1011.33,1271.8,1011.33,1267.9z"/>
		<path d="M1073.67,1195.43v19.96h13.88v15.9h-13.88v40.51c0,3,0.57,5.15,1.73,6.45c1.15,1.3,3.35,1.95,6.6,1.95
			c2.4,0,4.53-0.17,6.38-0.53v16.43c-4.25,1.3-8.63,1.95-13.13,1.95c-15.2,0-22.96-7.68-23.26-23.03v-43.74h-11.85v-15.9h11.85
			v-19.96H1073.67z"/>
		<path d="M1146.66,1296.56c-1-1.95-1.73-4.38-2.18-7.28c-5.25,5.85-12.08,8.78-20.48,8.78c-7.95,0-14.54-2.3-19.77-6.9
			c-5.23-4.6-7.84-10.4-7.84-17.4c0-8.6,3.19-15.2,9.56-19.81c6.38-4.6,15.59-6.93,27.64-6.98h9.98v-4.65c0-3.75-0.96-6.75-2.89-9
			c-1.93-2.25-4.96-3.38-9.11-3.38c-3.65,0-6.52,0.88-8.59,2.63c-2.08,1.75-3.11,4.15-3.11,7.2h-21.68c0-4.7,1.45-9.05,4.35-13.05
			c2.9-4,7-7.14,12.3-9.41c5.3-2.28,11.25-3.41,17.85-3.41c10,0,17.94,2.51,23.82,7.54c5.88,5.03,8.81,12.09,8.81,21.19v35.18
			c0.05,7.7,1.13,13.53,3.23,17.48v1.28H1146.66z M1128.73,1281.48c3.2,0,6.15-0.71,8.85-2.14s4.7-3.34,6-5.74v-13.95h-8.1
			c-10.85,0-16.63,3.75-17.33,11.25l-0.08,1.28c0,2.7,0.95,4.93,2.85,6.68C1122.83,1280.6,1125.43,1281.48,1128.73,1281.48z"/>
		<path d="M1215.76,1280.58c4,0,7.25-1.1,9.75-3.3c2.5-2.2,3.8-5.13,3.9-8.78h20.33c-0.05,5.5-1.55,10.54-4.5,15.12
			c-2.95,4.58-6.99,8.13-12.12,10.65c-5.13,2.52-10.79,3.79-16.99,3.79c-11.6,0-20.76-3.69-27.46-11.07
			c-6.7-7.38-10.05-17.57-10.05-30.57V1255c0-12.5,3.33-22.48,9.98-29.93c6.65-7.45,15.78-11.18,27.38-11.18
			c10.15,0,18.29,2.89,24.42,8.66c6.13,5.78,9.24,13.47,9.34,23.07h-20.33c-0.1-4.22-1.4-7.65-3.9-10.29
			c-2.5-2.64-5.8-3.96-9.9-3.96c-5.05,0-8.87,1.84-11.44,5.52c-2.58,3.68-3.86,9.66-3.86,17.92v2.25c0,8.37,1.28,14.38,3.83,18.03
			C1206.68,1278.75,1210.55,1280.58,1215.76,1280.58z"/>
		<path d="M1291.6,1264l-7.8,7.8v24.76h-21.68v-115.23h21.68v63.84l4.2-5.4l20.78-24.38h26.03l-29.33,33.83l31.88,47.34h-24.91
			L1291.6,1264z"/>
	</g>
	<g>
		<g>
			<path d="M1081.72,701.94H918.28c-23.81,0-45.81,12.7-57.71,33.32L778.86,876.8c-11.9,20.62-11.9,46.02,0,66.64l81.72,141.54
				c11.9,20.62,33.9,33.32,57.71,33.32h163.43c23.81,0,45.81-12.7,57.71-33.32l81.72-141.54c11.9-20.62,11.9-46.02,0-66.64
				l-81.72-141.53C1127.52,714.64,1105.52,701.94,1081.72,701.94z M1060.91,1082.25H939.1c-23.81,0-45.81-12.7-57.71-33.32
				l-60.91-105.5c-11.9-20.62-11.9-46.02,0-66.64l60.91-105.49c11.9-20.62,33.9-33.32,57.71-33.32h121.82
				c23.81,0,45.81,12.7,57.71,33.32l60.91,105.49c11.9,20.62,11.9,46.02,0,66.64l-60.91,105.5
				C1106.72,1069.55,1084.72,1082.25,1060.91,1082.25z"/>
		</g>
		<path class="st10" d="M1120.8,907.89l-118.28-52.39c-1.49-0.66-3.54-0.66-5.03,0L879.2,907.89c-1.05,0.47-1.67,1.2-1.67,1.98
			c0,0.78,0.62,1.51,1.67,1.98l118.28,52.39c1.49,0.66,3.54,0.66,5.03,0l118.28-52.39c1.05-0.47,1.67-1.2,1.67-1.98
			C1122.47,909.09,1121.85,908.36,1120.8,907.89z"/>
		<path class="st10" d="M1120.8,956.72l-118.28-52.39c-1.49-0.66-3.54-0.66-5.03,0L879.2,956.72c-1.05,0.47-1.67,1.2-1.67,1.98
			c0,0.78,0.62,1.51,1.67,1.98l118.28,52.39c1.49,0.66,3.54,0.66,5.03,0l118.28-52.39c1.05-0.47,1.67-1.2,1.67-1.98
			C1122.47,957.91,1121.85,957.18,1120.8,956.72z"/>
		<g class="st6">
			<path class="st10" d="M1120.8,859.07l-118.28-52.39c-1.49-0.66-3.54-0.66-5.03,0L879.2,859.07c-1.05,0.47-1.67,1.2-1.67,1.98
				c0,0.78,0.62,1.51,1.67,1.98l118.28,52.39c1.49,0.66,3.54,0.66,5.03,0l118.28-52.39c1.05-0.47,1.67-1.2,1.67-1.98
				C1122.47,860.27,1121.85,859.54,1120.8,859.07z"/>
		</g>
	</g>
</g>
</svg>
